<mxfile host="app.diagrams.net" agent="Mozilla/5.0 (Windows NT 10.0; Win64; x64) AppleWebKit/537.36 (KHTML, like Gecko) Chrome/140.0.0.0 Safari/537.36" version="28.2.5">
  <diagram name="Page-1" id="fjmK3RTC5dodibDGumpl">
    <mxGraphModel dx="872" dy="473" grid="1" gridSize="10" guides="1" tooltips="1" connect="1" arrows="1" fold="1" page="1" pageScale="1" pageWidth="827" pageHeight="1169" math="0" shadow="0">
      <root>
        <mxCell id="0" />
        <mxCell id="1" parent="0" />
        <mxCell id="U5W_C9OcdHxPGQIVkEpR-2" value="Student" style="shape=umlActor;verticalLabelPosition=bottom;verticalAlign=top;html=1;outlineConnect=0;" vertex="1" parent="1">
          <mxGeometry x="90" y="280" width="50" height="90" as="geometry" />
        </mxCell>
        <mxCell id="U5W_C9OcdHxPGQIVkEpR-6" value="" style="rounded=0;whiteSpace=wrap;html=1;" vertex="1" parent="1">
          <mxGeometry x="220" y="110" width="240" height="470" as="geometry" />
        </mxCell>
        <mxCell id="U5W_C9OcdHxPGQIVkEpR-7" value="Login with Email/Password" style="ellipse;whiteSpace=wrap;html=1;" vertex="1" parent="1">
          <mxGeometry x="274" y="130" width="140" height="70" as="geometry" />
        </mxCell>
        <mxCell id="U5W_C9OcdHxPGQIVkEpR-8" value="View Home Feed with Offers" style="ellipse;whiteSpace=wrap;html=1;" vertex="1" parent="1">
          <mxGeometry x="274" y="220" width="140" height="70" as="geometry" />
        </mxCell>
        <mxCell id="U5W_C9OcdHxPGQIVkEpR-9" value="Tap Offer to View Details" style="ellipse;whiteSpace=wrap;html=1;" vertex="1" parent="1">
          <mxGeometry x="270" y="310" width="140" height="70" as="geometry" />
        </mxCell>
        <mxCell id="U5W_C9OcdHxPGQIVkEpR-10" value="Create New Skill Offer" style="ellipse;whiteSpace=wrap;html=1;" vertex="1" parent="1">
          <mxGeometry x="274" y="400" width="140" height="70" as="geometry" />
        </mxCell>
        <mxCell id="U5W_C9OcdHxPGQIVkEpR-11" value="View Profile with Skills &amp;amp; Rating" style="ellipse;whiteSpace=wrap;html=1;" vertex="1" parent="1">
          <mxGeometry x="274" y="490" width="140" height="70" as="geometry" />
        </mxCell>
        <mxCell id="U5W_C9OcdHxPGQIVkEpR-13" value="" style="endArrow=classic;html=1;rounded=0;exitX=0.5;exitY=0.5;exitDx=0;exitDy=0;exitPerimeter=0;entryX=0;entryY=0.5;entryDx=0;entryDy=0;" edge="1" parent="1" source="U5W_C9OcdHxPGQIVkEpR-2" target="U5W_C9OcdHxPGQIVkEpR-7">
          <mxGeometry width="50" height="50" relative="1" as="geometry">
            <mxPoint x="40" y="530" as="sourcePoint" />
            <mxPoint x="90" y="480" as="targetPoint" />
          </mxGeometry>
        </mxCell>
        <mxCell id="U5W_C9OcdHxPGQIVkEpR-14" value="" style="endArrow=classic;html=1;rounded=0;exitX=0.5;exitY=0.5;exitDx=0;exitDy=0;exitPerimeter=0;entryX=0;entryY=0.5;entryDx=0;entryDy=0;" edge="1" parent="1" source="U5W_C9OcdHxPGQIVkEpR-2" target="U5W_C9OcdHxPGQIVkEpR-9">
          <mxGeometry width="50" height="50" relative="1" as="geometry">
            <mxPoint x="100" y="660" as="sourcePoint" />
            <mxPoint x="150" y="610" as="targetPoint" />
          </mxGeometry>
        </mxCell>
        <mxCell id="U5W_C9OcdHxPGQIVkEpR-15" value="" style="endArrow=classic;html=1;rounded=0;entryX=0;entryY=0.5;entryDx=0;entryDy=0;exitX=0.5;exitY=0.5;exitDx=0;exitDy=0;exitPerimeter=0;" edge="1" parent="1" source="U5W_C9OcdHxPGQIVkEpR-2" target="U5W_C9OcdHxPGQIVkEpR-10">
          <mxGeometry width="50" height="50" relative="1" as="geometry">
            <mxPoint x="150" y="320" as="sourcePoint" />
            <mxPoint x="270" y="640" as="targetPoint" />
          </mxGeometry>
        </mxCell>
        <mxCell id="U5W_C9OcdHxPGQIVkEpR-16" value="" style="endArrow=classic;html=1;rounded=0;exitX=0.5;exitY=0.5;exitDx=0;exitDy=0;exitPerimeter=0;entryX=0;entryY=0.5;entryDx=0;entryDy=0;" edge="1" parent="1" source="U5W_C9OcdHxPGQIVkEpR-2" target="U5W_C9OcdHxPGQIVkEpR-8">
          <mxGeometry width="50" height="50" relative="1" as="geometry">
            <mxPoint x="90" y="600" as="sourcePoint" />
            <mxPoint x="140" y="550" as="targetPoint" />
          </mxGeometry>
        </mxCell>
        <mxCell id="U5W_C9OcdHxPGQIVkEpR-17" value="" style="endArrow=classic;html=1;rounded=0;exitX=0.5;exitY=0.5;exitDx=0;exitDy=0;exitPerimeter=0;entryX=0;entryY=0.5;entryDx=0;entryDy=0;" edge="1" parent="1" source="U5W_C9OcdHxPGQIVkEpR-2" target="U5W_C9OcdHxPGQIVkEpR-11">
          <mxGeometry width="50" height="50" relative="1" as="geometry">
            <mxPoint x="200" y="600" as="sourcePoint" />
            <mxPoint x="420" y="630" as="targetPoint" />
          </mxGeometry>
        </mxCell>
      </root>
    </mxGraphModel>
  </diagram>
</mxfile>
